<svg width="30" height="35" viewBox="0 0 30 35" fill="none" xmlns="http://www.w3.org/2000/svg">
<path d="M25.5067 6.50244C22.7009 3.68994 18.9643 2.14307 14.9933 2.14307C6.79687 2.14307 0.127232 8.81271 0.127232 17.0091C0.127232 19.6274 0.810268 22.1855 2.10938 24.4422L0 32.1431L7.8817 30.0739C10.0513 31.2591 12.4955 31.8819 14.9866 31.8819H14.9933C23.183 31.8819 30 25.2123 30 17.0158C30 13.0449 28.3125 9.31494 25.5067 6.50244ZM14.9933 29.3774C12.7701 29.3774 10.5937 28.7815 8.69866 27.6565L8.25 27.3886L3.57589 28.614L4.82143 24.0538L4.52679 23.585C3.28795 21.6163 2.63839 19.3462 2.63839 17.0091C2.63839 10.1989 8.18303 4.65423 15 4.65423C18.3013 4.65423 21.4018 5.93994 23.7321 8.27699C26.0625 10.614 27.4955 13.7145 27.4888 17.0158C27.4888 23.8328 21.8036 29.3774 14.9933 29.3774ZM21.7701 20.123C21.4018 19.9355 19.5737 19.0382 19.2321 18.9176C18.8906 18.7904 18.6429 18.7301 18.3951 19.1051C18.1473 19.4801 17.4375 20.3105 17.2165 20.5649C17.0022 20.8127 16.7812 20.8462 16.4129 20.6587C14.2299 19.5672 12.7969 18.71 11.3571 16.239C10.9754 15.5828 11.7388 15.6297 12.4487 14.21C12.5692 13.9623 12.5089 13.748 12.4152 13.5605C12.3214 13.373 11.5781 11.5449 11.2701 10.8015C10.9688 10.0783 10.6607 10.1788 10.433 10.1654C10.2188 10.152 9.97098 10.152 9.72321 10.152C9.47545 10.152 9.07366 10.2457 8.73214 10.614C8.39062 10.989 7.43304 11.8864 7.43304 13.7145C7.43304 15.5426 8.76562 17.3105 8.94643 17.5582C9.13393 17.806 11.5647 21.556 15.2946 23.1699C17.6518 24.1877 18.5759 24.2748 19.7545 24.1007C20.471 23.9935 21.9509 23.2033 22.2589 22.3328C22.567 21.4623 22.567 20.719 22.4732 20.5649C22.3862 20.3975 22.1384 20.3038 21.7701 20.123Z" fill="white"/>
</svg>
