<svg width="60" height="60" viewBox="0 0 60 60" fill="none" xmlns="http://www.w3.org/2000/svg">
<rect width="60" height="60" rx="5" fill="#35A72A"/>
<path d="M13.5 49.0001C11.625 47.1251 10.1562 44.9584 9.09375 42.5001C8.03125 40.0417 7.5 37.5001 7.5 34.8751C7.5 32.2501 8 29.6563 9 27.0938C10 24.5313 11.625 22.1251 13.875 19.8751C15.3333 18.4167 17.1354 17.1667 19.2812 16.1251C21.4271 15.0834 23.9688 14.2605 26.9062 13.6563C29.8438 13.0521 33.1979 12.6876 36.9688 12.5626C40.7396 12.4376 44.9583 12.5834 49.625 13.0001C49.9583 17.4167 50.0625 21.4792 49.9375 25.1876C49.8125 28.8959 49.4688 32.2396 48.9062 35.2188C48.3438 38.198 47.5521 40.8021 46.5312 43.0313C45.5104 45.2605 44.25 47.1251 42.75 48.6251C40.5417 50.8334 38.1979 52.448 35.7188 53.4688C33.2396 54.4896 30.7083 55.0001 28.125 55.0001C25.4167 55.0001 22.7708 54.4688 20.1875 53.4063C17.6042 52.3438 15.375 50.8751 13.5 49.0001ZM20.5 48.0001C21.7083 48.7084 22.9479 49.2188 24.2188 49.5313C25.4896 49.8438 26.7917 50.0001 28.125 50.0001C30.0417 50.0001 31.9375 49.6146 33.8125 48.8438C35.6875 48.073 37.4792 46.8334 39.1875 45.1251C39.9375 44.3751 40.6979 43.323 41.4688 41.9688C42.2396 40.6146 42.9062 38.8438 43.4688 36.6563C44.0312 34.4688 44.4583 31.823 44.75 28.7188C45.0417 25.6146 45.0833 21.9167 44.875 17.6251C42.8333 17.5417 40.5312 17.5105 37.9688 17.5313C35.4062 17.5521 32.8542 17.7501 30.3125 18.1251C27.7708 18.5001 25.3542 19.1042 23.0625 19.9376C20.7708 20.7709 18.8958 21.9167 17.4375 23.3751C15.5625 25.2501 14.2708 27.1042 13.5625 28.9376C12.8542 30.7709 12.5 32.5417 12.5 34.2501C12.5 36.7084 12.9688 38.8646 13.9062 40.7188C14.8438 42.573 15.6667 43.8751 16.375 44.6251C18.125 41.2917 20.4375 38.0938 23.3125 35.0313C26.1875 31.9688 29.5417 29.4584 33.375 27.5001C30.375 30.1251 27.7604 33.0938 25.5312 36.4063C23.3021 39.7188 21.625 43.5834 20.5 48.0001Z" fill="#EEEE19"/>
</svg>
