<svg width="60" height="60" viewBox="0 0 60 60" fill="none" xmlns="http://www.w3.org/2000/svg">
<rect width="60" height="60" rx="5" fill="#35A72A"/>
<path d="M27.875 55C27.25 55 26.625 54.875 26 54.625C25.375 54.375 24.8125 54 24.3125 53.5L6.4375 35.625C5.9375 35.125 5.57292 34.5729 5.34375 33.9688C5.11458 33.3646 5 32.75 5 32.125C5 31.5 5.11458 30.875 5.34375 30.25C5.57292 29.625 5.9375 29.0625 6.4375 28.5625L28.4375 6.5C28.8958 6.04167 29.4375 5.67708 30.0625 5.40625C30.6875 5.13542 31.3333 5 32 5H49.9375C51.3125 5 52.4896 5.48958 53.4688 6.46875C54.4479 7.44792 54.9375 8.625 54.9375 10V27.9375C54.9375 28.6042 54.8125 29.2396 54.5625 29.8438C54.3125 30.4479 53.9583 30.9792 53.5 31.4375L31.4375 53.5C30.9375 54 30.375 54.375 29.75 54.625C29.125 54.875 28.5 55 27.875 55ZM27.875 50L49.9375 27.875V10H32.0625L10 32.125L27.875 50ZM43.6875 20C44.7292 20 45.6146 19.6354 46.3438 18.9062C47.0729 18.1771 47.4375 17.2917 47.4375 16.25C47.4375 15.2083 47.0729 14.3229 46.3438 13.5938C45.6146 12.8646 44.7292 12.5 43.6875 12.5C42.6458 12.5 41.7604 12.8646 41.0312 13.5938C40.3021 14.3229 39.9375 15.2083 39.9375 16.25C39.9375 17.2917 40.3021 18.1771 41.0312 18.9062C41.7604 19.6354 42.6458 20 43.6875 20Z" fill="#EEEE19"/>
</svg>
