<svg width="60" height="60" viewBox="0 0 60 60" fill="none" xmlns="http://www.w3.org/2000/svg">
<rect width="60" height="60" rx="5" fill="#35A72A"/>
<path d="M51.1875 58.25L42.5 49.5625V50H2.5V43C2.5 41.5833 2.86458 40.2812 3.59375 39.0938C4.32292 37.9062 5.29167 37 6.5 36.375C9.08333 35.0833 11.7083 34.1146 14.375 33.4688C17.0417 32.8229 19.75 32.5 22.5 32.5C23 32.5 23.5104 32.5104 24.0312 32.5312C24.5521 32.5521 25.0625 32.5833 25.5625 32.625L22.9375 30H22.5C19.75 30 17.3958 29.0208 15.4375 27.0625C13.4792 25.1042 12.5 22.75 12.5 20V19.5625L1.6875 8.75L5.25 5.1875L54.75 54.6875L51.1875 58.25ZM41.625 32.875C43.75 33.125 45.75 33.5521 47.625 34.1562C49.5 34.7604 51.25 35.5 52.875 36.375C54.375 37.2083 55.5208 38.1354 56.3125 39.1562C57.1042 40.1771 57.5 41.2917 57.5 42.5V50H57.1875L47.1875 40C46.8125 38.625 46.1562 37.3229 45.2188 36.0938C44.2812 34.8646 43.0833 33.7917 41.625 32.875ZM22.5 37.5C20.1667 37.5 17.8542 37.7812 15.5625 38.3438C13.2708 38.9062 11 39.75 8.75 40.875C8.375 41.0833 8.07292 41.375 7.84375 41.75C7.61458 42.125 7.5 42.5417 7.5 43V45H37.5V44.5625L32.0625 39.125C30.4792 38.5833 28.8854 38.1771 27.2812 37.9062C25.6771 37.6354 24.0833 37.5 22.5 37.5ZM35.125 27.9375C35.9167 26.7708 36.5104 25.5208 36.9062 24.1875C37.3021 22.8542 37.5 21.4583 37.5 20C37.5 18.25 37.1979 16.5625 36.5938 14.9375C35.9896 13.3125 35.125 11.8333 34 10.5C34.5833 10.2917 35.1667 10.1562 35.75 10.0938C36.3333 10.0312 36.9167 10 37.5 10C40.25 10 42.6042 10.9792 44.5625 12.9375C46.5208 14.8958 47.5 17.25 47.5 20C47.5 22.75 46.4688 25.1042 44.4062 27.0625C42.3438 29.0208 39.9375 30 37.1875 30L35.125 27.9375ZM31.5 24.3125L27.5 20.3125V20C27.5 18.625 27.0104 17.4479 26.0312 16.4688C25.0521 15.4896 23.875 15 22.5 15H22.1875L18.1875 11C18.8542 10.6667 19.5417 10.4167 20.25 10.25C20.9583 10.0833 21.7083 10 22.5 10C25.25 10 27.6042 10.9792 29.5625 12.9375C31.5208 14.8958 32.5 17.25 32.5 20C32.5 20.7917 32.4167 21.5417 32.25 22.25C32.0833 22.9583 31.8333 23.6458 31.5 24.3125Z" fill="#EEEE19"/>
</svg>
