<svg width="60" height="60" viewBox="0 0 60 60" fill="none" xmlns="http://www.w3.org/2000/svg">
<rect width="60" height="60" rx="5" fill="#35A72A"/>
<path d="M35.875 21.375C35.375 20.125 34.6354 19.1458 33.6563 18.4375C32.6771 17.7292 31.5 17.375 30.125 17.375C29.375 17.375 28.6458 17.4792 27.9375 17.6875C27.2292 17.8958 26.5833 18.2917 26 18.875L22.375 15.25C22.9583 14.6667 23.75 14.1354 24.75 13.6563C25.75 13.1771 26.6667 12.875 27.5 12.75V7.5H32.5V12.625C34.375 13 36.0208 13.7604 37.4375 14.9063C38.8542 16.0521 39.9167 17.5417 40.625 19.375L35.875 21.375ZM49.5 56.5L38 45C37.375 45.625 36.5208 46.1354 35.4375 46.5313C34.3542 46.9271 33.375 47.1667 32.5 47.25V52.5H27.5V47.125C25.1667 46.5417 23.2188 45.4792 21.6563 43.9375C20.0938 42.3958 18.9583 40.4583 18.25 38.125L23.25 36.125C23.75 37.875 24.5938 39.375 25.7813 40.625C26.9688 41.875 28.5417 42.5 30.5 42.5C31.25 42.5 31.9375 42.4063 32.5625 42.2188C33.1875 42.0313 33.7917 41.75 34.375 41.375L3.5 10.5L7 7L53 53L49.5 56.5Z" fill="#EEEE19"/>
</svg>
