<svg width="60" height="60" viewBox="0 0 60 60" fill="none" xmlns="http://www.w3.org/2000/svg">
<rect width="60" height="60" rx="5" fill="#35A72A"/>
<path d="M17.5 57.5C16.125 57.5 14.9479 57.0104 13.9688 56.0312C12.9896 55.0521 12.5 53.875 12.5 52.5V7.5C12.5 6.125 12.9896 4.94792 13.9688 3.96875C14.9479 2.98958 16.125 2.5 17.5 2.5H42.5C43.875 2.5 45.0521 2.98958 46.0312 3.96875C47.0104 4.94792 47.5 6.125 47.5 7.5V52.5C47.5 53.875 47.0104 55.0521 46.0312 56.0312C45.0521 57.0104 43.875 57.5 42.5 57.5H17.5ZM17.5 50V52.5H42.5V50H17.5ZM17.5 45H42.5V15H17.5V45ZM17.5 10H42.5V7.5H17.5V10Z" fill="#EEEE19"/>
</svg>
