<svg width="60" height="60" viewBox="0 0 60 60" fill="none" xmlns="http://www.w3.org/2000/svg">
<rect width="60" height="60" rx="5" fill="#35A72A"/>
<path d="M25.125 57.5C23.875 57.5 22.7083 57.2188 21.625 56.6562C20.5417 56.0938 19.6458 55.2917 18.9375 54.25L3 30.9375L4.5 29.5C5.29167 28.7083 6.22917 28.25 7.3125 28.125C8.39583 28 9.375 28.25 10.25 28.875L17.5 33.9375V10C17.5 9.29167 17.7396 8.69792 18.2188 8.21875C18.6979 7.73958 19.2917 7.5 20 7.5C20.7083 7.5 21.3021 7.73958 21.7813 8.21875C22.2604 8.69792 22.5 9.29167 22.5 10V43.5625L13.25 37.0625L23.0625 51.375C23.2708 51.7083 23.5625 51.9792 23.9375 52.1875C24.3125 52.3958 24.7083 52.5 25.125 52.5H42.5C43.875 52.5 45.0521 52.0104 46.0313 51.0312C47.0104 50.0521 47.5 48.875 47.5 47.5V12.5C47.5 11.7917 47.7396 11.1979 48.2188 10.7188C48.6979 10.2396 49.2917 10 50 10C50.7083 10 51.3021 10.2396 51.7813 10.7188C52.2604 11.1979 52.5 11.7917 52.5 12.5V47.5C52.5 50.25 51.5208 52.6042 49.5625 54.5625C47.6042 56.5208 45.25 57.5 42.5 57.5H25.125ZM27.5 30V5C27.5 4.29167 27.7396 3.69792 28.2188 3.21875C28.6979 2.73958 29.2917 2.5 30 2.5C30.7083 2.5 31.3021 2.73958 31.7813 3.21875C32.2604 3.69792 32.5 4.29167 32.5 5V30H27.5ZM37.5 30V7.5C37.5 6.79167 37.7396 6.19792 38.2188 5.71875C38.6979 5.23958 39.2917 5 40 5C40.7083 5 41.3021 5.23958 41.7813 5.71875C42.2604 6.19792 42.5 6.79167 42.5 7.5V30H37.5Z" fill="#EEEE19"/>
</svg>
